{
  "accessors": [
    {
      "bufferView": 2,
      "componentType": 5126,
      "count": 5895,
      "max": [
        1699.321044921875,
        1561.07080078125,
        702.656494140625
      ],
      "min": [
        0,
        0,
        0
      ],
      "type": "VEC3"
    },
    {
      "bufferView": 2,
      "byteOffset": 70740,
      "componentType": 5126,
      "count": 5895,
      "max": [
        1,
        1,
        1
      ],
      "min": [
        -1,
        -1,
        -1
      ],
      "type": "VEC3"
    },
    {
      "bufferView": 3,
      "componentType": 5126,
      "count": 5895,
      "max": [
        1,
        1,
        1,
        1
      ],
      "min": [
        -1,
        -1,
        -1,
        -1
      ],
      "type": "VEC4"
    },
    {
      "bufferView": 1,
      "componentType": 5126,
      "count": 5895,
      "max": [
        0.99494600296020508,
        0.99699497222900391
      ],
      "min": [
        0.0062930001877248287,
        0.0034370000939816236
      ],
      "type": "VEC2"
    },
    {
      "bufferView": 0,
      "componentType": 5125,
      "count": 15666,
      "max": [
        5894
      ],
      "min": [
        0
      ],
      "type": "SCALAR"
    },
    {
      "bufferView": 2,
      "byteOffset": 141480,
      "componentType": 5126,
      "count": 86,
      "max": [
        907.61529541015625,
        946.8328857421875,
        550.151123046875
      ],
      "min": [
        789.63226318359375,
        697.099609375,
        472.87466430664062
      ],
      "type": "VEC3"
    },
    {
      "bufferView": 2,
      "byteOffset": 142512,
      "componentType": 5126,
      "count": 86,
      "max": [
        1,
        0.646831214427948,
        0.97721636295318604
      ],
      "min": [
        -1,
        -0.646831214427948,
        -0.97721648216247559
      ],
      "type": "VEC3"
    },
    {
      "bufferView": 3,
      "byteOffset": 94320,
      "componentType": 5126,
      "count": 86,
      "max": [
        0.99999469518661499,
        1,
        0.97356724739074707,
        1
      ],
      "min": [
        -0.99999499320983887,
        0.002924665343016386,
        -0.96667337417602539,
        -1
      ],
      "type": "VEC4"
    },
    {
      "bufferView": 1,
      "byteOffset": 47160,
      "componentType": 5126,
      "count": 86,
      "max": [
        0.96965897083282471,
        0.86540102958679199
      ],
      "min": [
        0.42453598976135254,
        0.093965999782085419
      ],
      "type": "VEC2"
    },
    {
      "bufferView": 0,
      "byteOffset": 62664,
      "componentType": 5125,
      "count": 144,
      "max": [
        85
      ],
      "min": [
        0
      ],
      "type": "SCALAR"
    },
    {
      "bufferView": 2,
      "byteOffset": 143544,
      "componentType": 5126,
      "count": 8,
      "max": [
        900.82025146484375,
        790.427001953125,
        505.67532348632812
      ],
      "min": [
        798.50079345703125,
        768.15545654296875,
        459.11834716796875
      ],
      "type": "VEC3"
    },
    {
      "bufferView": 2,
      "byteOffset": 143640,
      "componentType": 5126,
      "count": 8,
      "max": [
        0.29048416018486023,
        0.95175826549530029,
        0.26764905452728271
      ],
      "min": [
        -0.29048416018486023,
        0.92114943265914917,
        0.25904187560081482
      ],
      "type": "VEC3"
    },
    {
      "bufferView": 3,
      "byteOffset": 95696,
      "componentType": 5126,
      "count": 8,
      "max": [
        -0.95687979459762573,
        0.27963712811470032,
        0.078743278980255127,
        1
      ],
      "min": [
        -0.98867571353912354,
        -0.27966663241386414,
        -0.078638233244419098,
        1
      ],
      "type": "VEC4"
    },
    {
      "bufferView": 1,
      "byteOffset": 47848,
      "componentType": 5126,
      "count": 8,
      "max": [
        0.61729997396469116,
        0.75533699989318848
      ],
      "min": [
        0.4472230076789856,
        0.69702798128128052
      ],
      "type": "VEC2"
    },
    {
      "bufferView": 0,
      "byteOffset": 63240,
      "componentType": 5125,
      "count": 18,
      "max": [
        7
      ],
      "min": [
        0
      ],
      "type": "SCALAR"
    },
    {
      "bufferView": 2,
      "byteOffset": 143736,
      "componentType": 5126,
      "count": 48,
      "max": [
        1131.8804931640625,
        2958.74609375,
        442.20315551757812
      ],
      "min": [
        555.04730224609375,
        1302.3125,
        317.7457275390625
      ],
      "type": "VEC3"
    },
    {
      "bufferView": 2,
      "byteOffset": 144312,
      "componentType": 5126,
      "count": 48,
      "max": [
        0,
        -0,
        1
      ],
      "min": [
        -1,
        -0,
        0
      ],
      "type": "VEC3"
    },
    {
      "bufferView": 3,
      "byteOffset": 95824,
      "componentType": 5126,
      "count": 48,
      "max": [
        1,
        0.030975926667451859,
        1,
        1
      ],
      "min": [
        0,
        -0.11523137241601944,
        0,
        1
      ],
      "type": "VEC4"
    },
    {
      "bufferView": 1,
      "byteOffset": 47912,
      "componentType": 5126,
      "count": 48,
      "max": [
        0.86538499593734741,
        0.99472397565841675
      ],
      "min": [
        0.17727600038051605,
        0.0020789999980479479
      ],
      "type": "VEC2"
    },
    {
      "bufferView": 0,
      "byteOffset": 63312,
      "componentType": 5125,
      "count": 120,
      "max": [
        47
      ],
      "min": [
        0
      ],
      "type": "SCALAR"
    }
  ],
  "asset": {
    "extras": {
      "author": "Polenta (https://sketchfab.com/kln)",
      "license": "CC-BY-4.0 (http://creativecommons.org/licenses/by/4.0/)",
      "source": "https://sketchfab.com/models/5edb70fdc0da4e6aa7d96f5f19f7a419",
      "title": "Raven spaceship - Star Conflict (v.2)"
    },
    "generator": "Sketchfab-4.12.0",
    "version": "2.0"
  },
  "bufferViews": [
    {
      "buffer": 0,
      "byteLength": 63792,
      "byteOffset": 0,
      "name": "floatBufferViews",
      "target": 34963
    },
    {
      "buffer": 0,
      "byteLength": 48296,
      "byteOffset": 63792,
      "byteStride": 8,
      "name": "floatBufferViews",
      "target": 34962
    },
    {
      "buffer": 0,
      "byteLength": 144888,
      "byteOffset": 112088,
      "byteStride": 12,
      "name": "floatBufferViews",
      "target": 34962
    },
    {
      "buffer": 0,
      "byteLength": 96592,
      "byteOffset": 256976,
      "byteStride": 16,
      "name": "floatBufferViews",
      "target": 34962
    }
  ],
  "buffers": [
    {
      "byteLength": 353568,
      "uri": "scene.bin"
    }
  ],
  "images": [
    {
      "uri": "textures/Raven_sketchfablambert5SG_baseColor.png"
    },
    {
      "uri": "textures/Raven_sketchfablambert5SG_emissive.png"
    },
    {
      "uri": "textures/Raven_sketchfablambert5SG_normal.png"
    },
    {
      "uri": "textures/Raven_sketchfablambert5SG_metallicRoughness.png"
    },
    {
      "uri": "textures/Raven_sketchfablambert8SG_baseColor.png"
    },
    {
      "uri": "textures/Raven_sketchfablambert8SG_emissive.png"
    },
    {
      "uri": "textures/Raven_sketchfablambert7SG_baseColor.png"
    },
    {
      "uri": "textures/Raven_sketchfablambert7SG_emissive.png"
    },
    {
      "uri": "textures/Raven_sketchfablambert6SG_baseColor.png"
    },
    {
      "uri": "textures/Raven_sketchfablambert6SG_normal.png"
    },
    {
      "uri": "textures/Raven_sketchfablambert6SG_metallicRoughness.png"
    }
  ],
  "materials": [
    {
      "doubleSided": true,
      "emissiveFactor": [
        1,
        1,
        1
      ],
      "emissiveTexture": {
        "index": 1,
        "texCoord": 0
      },
      "name": "Raven_sketchfablambert5SG",
      "normalTexture": {
        "index": 2,
        "scale": 1,
        "texCoord": 0
      },
      "pbrMetallicRoughness": {
        "baseColorFactor": [
          1,
          1,
          1,
          1
        ],
        "baseColorTexture": {
          "index": 0,
          "texCoord": 0
        },
        "metallicFactor": 1,
        "metallicRoughnessTexture": {
          "index": 3,
          "texCoord": 0
        },
        "roughnessFactor": 1
      }
    },
    {
      "alphaMode": "BLEND",
      "doubleSided": true,
      "name": "Raven_sketchfablambert6SG",
      "normalTexture": {
        "index": 9,
        "scale": 1,
        "texCoord": 0
      },
      "pbrMetallicRoughness": {
        "baseColorFactor": [
          1,
          1,
          1,
          0.3031631098
        ],
        "baseColorTexture": {
          "index": 8,
          "texCoord": 0
        },
        "metallicFactor": 0,
        "metallicRoughnessTexture": {
          "index": 10,
          "texCoord": 0
        },
        "roughnessFactor": 0
      }
    },
    {
      "alphaMode": "BLEND",
      "doubleSided": true,
      "emissiveFactor": [
        1,
        1,
        1
      ],
      "emissiveTexture": {
        "index": 7,
        "texCoord": 0
      },
      "name": "Raven_sketchfablambert7SG",
      "pbrMetallicRoughness": {
        "baseColorFactor": [
          1,
          1,
          1,
          0.254382622
        ],
        "baseColorTexture": {
          "index": 6,
          "texCoord": 0
        },
        "metallicFactor": 0,
        "roughnessFactor": 0.59999999999999998
      }
    },
    {
      "alphaMode": "BLEND",
      "doubleSided": true,
      "emissiveFactor": [
        1,
        1,
        1
      ],
      "emissiveTexture": {
        "index": 5,
        "texCoord": 0
      },
      "name": "Raven_sketchfablambert8SG",
      "pbrMetallicRoughness": {
        "baseColorFactor": [
          1,
          1,
          1,
          0.15072408540000001
        ],
        "baseColorTexture": {
          "index": 4,
          "texCoord": 0
        },
        "metallicFactor": 0,
        "roughnessFactor": 0
      }
    }
  ],
  "meshes": [
    {
      "primitives": [
        {
          "attributes": {
            "NORMAL": 1,
            "POSITION": 0,
            "TANGENT": 2,
            "TEXCOORD_0": 3
          },
          "indices": 4,
          "material": 0,
          "mode": 4
        }
      ]
    },
    {
      "primitives": [
        {
          "attributes": {
            "NORMAL": 6,
            "POSITION": 5,
            "TANGENT": 7,
            "TEXCOORD_0": 8
          },
          "indices": 9,
          "material": 1,
          "mode": 4
        }
      ]
    },
    {
      "primitives": [
        {
          "attributes": {
            "NORMAL": 11,
            "POSITION": 10,
            "TANGENT": 12,
            "TEXCOORD_0": 13
          },
          "indices": 14,
          "material": 2,
          "mode": 4
        }
      ]
    },
    {
      "primitives": [
        {
          "attributes": {
            "NORMAL": 16,
            "POSITION": 15,
            "TANGENT": 17,
            "TEXCOORD_0": 18
          },
          "indices": 19,
          "material": 3,
          "mode": 4
        }
      ]
    }
  ],
  "nodes": [
    {
      "children": [
        1
      ],
      "name": "RootNode (gltf orientation matrix)",
      "rotation": [
        -0.70710678118654746,
        -0,
        -0,
        0.70710678118654757
      ]
    },
    {
      "children": [
        2
      ],
      "name": "RootNode (model correction matrix)"
    },
    {
      "children": [
        3
      ],
      "matrix": [
        1,
        0,
        0,
        0,
        0,
        1,
        0,
        0,
        0,
        0,
        1,
        0,
        -849.6605224609375,
        -821.1820068359375,
        -376.14987182617188,
        1
      ],
      "name": "Raven_sketchfab.obj.cleaner.gles"
    },
    {
      "children": [
        4,
        5,
        6,
        7
      ],
      "name": ""
    },
    {
      "mesh": 0,
      "name": ""
    },
    {
      "mesh": 1,
      "name": ""
    },
    {
      "mesh": 2,
      "name": ""
    },
    {
      "mesh": 3,
      "name": ""
    }
  ],
  "samplers": [
    {
      "magFilter": 9729,
      "minFilter": 9987,
      "wrapS": 10497,
      "wrapT": 10497
    }
  ],
  "scene": 0,
  "scenes": [
    {
      "name": "OSG_Scene",
      "nodes": [
        0
      ]
    }
  ],
  "textures": [
    {
      "sampler": 0,
      "source": 0
    },
    {
      "sampler": 0,
      "source": 1
    },
    {
      "sampler": 0,
      "source": 2
    },
    {
      "sampler": 0,
      "source": 3
    },
    {
      "sampler": 0,
      "source": 4
    },
    {
      "sampler": 0,
      "source": 5
    },
    {
      "sampler": 0,
      "source": 6
    },
    {
      "sampler": 0,
      "source": 7
    },
    {
      "sampler": 0,
      "source": 8
    },
    {
      "sampler": 0,
      "source": 9
    },
    {
      "sampler": 0,
      "source": 10
    }
  ]
}

